<svg xmlns="http://www.w3.org/2000/svg" viewBox="0 0 920 280" width="920" height="280" font-family="ui-sans-serif, system-ui, -apple-system, Segoe UI, Roboto, sans-serif">
  <defs>
    <linearGradient id="bg" x1="0" y1="0" x2="1" y2="1">
      <stop offset="0" stop-color="#0a0f1f"/>
      <stop offset="1" stop-color="#141d3b"/>
    </linearGradient>
    <linearGradient id="acc" x1="0" y1="0" x2="1" y2="1">
      <stop offset="0" stop-color="#7c8cff"/>
      <stop offset="1" stop-color="#56e6c4"/>
    </linearGradient>
    <linearGradient id="acc2" x1="0" y1="0" x2="1" y2="0">
      <stop offset="0" stop-color="#56e6c4"/>
      <stop offset="1" stop-color="#7c8cff"/>
    </linearGradient>
  </defs>

  <rect x="1" y="1" width="918" height="278" rx="22" fill="url(#bg)" stroke="#26305a" stroke-width="1.5"/>

  <g transform="translate(70 78)">
    <rect x="0" y="0" width="124" height="124" rx="20" fill="none" stroke="url(#acc)" stroke-width="2.5"/>
    <rect x="26" y="24" width="72" height="18" rx="6" fill="#56e6c4" opacity="0.92"/>
    <rect x="26" y="53" width="72" height="18" rx="6" fill="#7c8cff" opacity="0.82"/>
    <rect x="26" y="82" width="46" height="18" rx="6" fill="#9aa6d8" opacity="0.6"/>
    <circle cx="62" cy="62" r="58" fill="none" stroke="url(#acc2)" stroke-width="1" opacity="0.25"/>
  </g>

  <g transform="translate(244 0)">
    <text x="0" y="128" font-size="86" font-weight="800" letter-spacing="-2" fill="#eef1fb">vfs<tspan fill="url(#acc)">kit</tspan></text>
    <text x="4" y="168" font-size="23" font-weight="500" fill="#aab2d8">One VFS interface over any backend.</text>
    <text x="4" y="198" font-size="19" font-weight="400" fill="#7e88b4">memory · disk · S3 · anything — composable, encrypted, remote.</text>

    <g transform="translate(4 222)" font-size="15" font-weight="600">
      <rect x="0" y="0" width="150" height="32" rx="16" fill="#172146" stroke="#2c376a"/>
      <text x="18" y="21" fill="#9fb0ff">npm</text><text x="52" y="21" fill="#d6ddf6">vfskit</text>
      <rect x="166" y="0" width="210" height="32" rx="16" fill="#172146" stroke="#2c376a"/>
      <text x="184" y="21" fill="#7ce6c8">jsDelivr</text><text x="246" y="21" fill="#d6ddf6">vfskit-front</text>
    </g>
  </g>
</svg>
